HIERARCHY
ROOT hip
{
	OFFSET 0.000000 0.000000 0.000000 
	CHANNELS 6 Xposition Yposition Zposition Xrotation Zrotation Yrotation
	JOINT abdomen
	{
		OFFSET 0.000000 3.402643 0.000000 
		CHANNELS 3 Xrotation Zrotation Yrotation
		JOINT chest
		{
			OFFSET 0.000000 8.438565 -0.680529 
			CHANNELS 3 Xrotation Zrotation Yrotation
			JOINT neck
			{
				OFFSET 0.000000 10.207942 -0.272212 
				CHANNELS 3 Xrotation Zrotation Yrotation
				JOINT head
				{
					OFFSET 0.000000 3.130431 0.000000 
					CHANNELS 3 Xrotation Zrotation Yrotation
					End Site
					{
						OFFSET 0.000000 3.130435 0.000000 
					}
				}
			}
			JOINT lCollar
			{
				OFFSET 3.470700 6.669187 -0.816635 
				CHANNELS 3 Yrotation Zrotation Xrotation
				JOINT lShldr
				{
					OFFSET 3.198488 0.000000 0.000000 
					CHANNELS 3 Zrotation Yrotation Xrotation
					JOINT lForeArm
					{
						OFFSET 10.139888 0.000000 0.000000 
						CHANNELS 3 Yrotation Zrotation Xrotation
						JOINT lHand
						{
							OFFSET 8.370511 0.000000 0.000000 
							CHANNELS 3 Zrotation Yrotation Xrotation
							End Site
							{
								OFFSET 4.083176 0.000000 0.000000 
							}
						}
					}
				}
			}
			JOINT rCollar
			{
				OFFSET -3.470700 6.669187 -0.816635 
				CHANNELS 3 Yrotation Zrotation Xrotation
				JOINT rShldr
				{
					OFFSET -3.198488 0.000000 0.000000 
					CHANNELS 3 Zrotation Yrotation Xrotation
					JOINT rForeArm
					{
						OFFSET -10.139888 0.000000 0.000000 
						CHANNELS 3 Yrotation Zrotation Xrotation
						JOINT rHand
						{
							OFFSET -8.370511 0.000000 0.000000 
							CHANNELS 3 Zrotation Yrotation Xrotation
							End Site
							{
								OFFSET -4.083176 0.000000 0.000000 
							}
						}
					}
				}
			}
		}
	}
	JOINT lThigh
	{
		OFFSET 5.308129 -1.633274 1.361059 
		CHANNELS 3 Xrotation Zrotation Yrotation
		JOINT lShin
		{
			OFFSET -2.041588 -20.007561 0.000000 
			CHANNELS 3 Xrotation Zrotation Yrotation
			JOINT lFoot
			{
				OFFSET 0.000000 -19.190928 -1.224953 
				CHANNELS 3 Xrotation Yrotation Zrotation
				End Site
				{
					OFFSET 0.000000 -2.449906 4.627600 
				}
			}
		}
	}
	JOINT rThigh
	{
		OFFSET -5.308129 -1.633274 1.361059 
		CHANNELS 3 Xrotation Zrotation Yrotation
		JOINT rShin
		{
			OFFSET 2.041588 -20.007561 0.000000 
			CHANNELS 3 Xrotation Zrotation Yrotation
			JOINT rFoot
			{
				OFFSET 0.000000 -19.190928 -1.224953 
				CHANNELS 3 Xrotation Yrotation Zrotation
				End Site
				{
					OFFSET 0.000000 -2.449906 4.627600 
				}
			}
		}
	}
}
MOTION
Frames: 10
Frame Time: 0.033333
-10.890406 48.449654 -26.879200 -12.363282 15.654297 62.529297 28.111223 -1.769163 0.872658 -13.706513 4.253790 1.651529 8.907027 1.032048 3.246600 32.236080 -2.152995 4.579912 -2.627393 -8.524513 -0.002951 -69.272499 -13.716936 9.132304 -44.872986 4.486051 61.523975 -14.171344 11.055220 -2.775092 11.669242 -0.609068 -0.003829 57.247101 5.662363 5.818036 46.023907 -3.784974 47.398045 -1.865234 -0.156250 0.000000 0.742751 13.994256 -9.138692 36.297176 -0.861333 -2.890792 0.134507 -3.761559 -12.219394 8.539458 -16.036757 -6.082243 52.677433 -0.061189 3.593462 12.249480 -3.237474 12.825261 
-10.801753 48.386532 -26.551420 -12.675781 15.830078 61.399151 27.493843 -1.335733 0.945830 -14.185181 4.313108 1.521196 9.546655 1.153625 3.455325 32.979610 -2.894015 4.760875 -2.399030 -8.043918 -0.005938 -68.412033 -11.837894 11.321475 -44.838078 4.431360 60.251633 -13.922712 11.996730 -2.952337 11.346957 -0.618612 -0.005333 57.860699 6.860320 5.256405 46.511227 -3.638996 45.081913 -5.852862 -1.363016 0.135968 1.797355 14.297146 -8.769257 36.336330 -0.855589 -2.890972 -0.643892 -3.054587 -12.256378 9.205136 -15.874243 -5.668384 52.463154 -0.051295 3.578674 11.086332 -3.183087 12.744733 
-10.773974 48.369041 -26.239363 -12.939453 15.771484 60.166016 26.925798 -0.823734 1.024143 -14.438904 4.528324 1.392464 9.611072 1.233727 3.696604 33.567081 -3.723133 4.894258 -1.956280 -7.689709 -0.009675 -67.635460 -9.785644 13.316147 -44.567596 4.417498 59.904305 -13.260056 13.264070 -3.102955 11.015009 -0.597533 -0.003065 58.550541 7.761372 4.805469 47.121017 -3.476103 42.467724 -9.172358 -2.105311 0.327929 2.626878 14.580989 -8.528410 36.180218 -0.870833 -2.878182 -1.046566 -2.048521 -12.230260 9.627523 -15.584124 -5.165371 52.014732 -0.022076 3.562151 9.969381 -3.316445 12.702242 
-10.791114 48.364788 -25.950352 -13.056641 15.605470 58.955078 26.505014 -0.313572 1.112059 -14.526501 4.762826 1.294206 9.187447 1.282946 3.936456 33.695015 -4.279562 5.020452 -1.317715 -7.335852 -0.002417 -67.301964 -7.740016 14.865806 -43.800045 4.442512 60.454578 -12.528633 14.343248 -3.155978 10.712258 -0.597509 -0.006222 59.338306 8.157775 4.458965 47.631588 -3.317650 40.015682 -11.496355 -1.849905 0.363782 3.252011 14.714847 -8.421990 35.907230 -0.890554 -2.851167 -1.095830 -0.813518 -12.185156 9.842748 -15.390402 -4.612135 51.507397 0.007287 3.552464 9.070750 -3.392811 12.650915 
-10.892652 48.360527 -25.695032 -12.910156 15.214844 57.851559 26.270897 0.019876 1.136252 -14.711679 5.095123 1.185496 8.099592 1.397799 4.157516 33.646793 -4.650737 5.098806 -0.456433 -6.972823 -0.006067 -67.433205 -5.649602 15.768199 -42.443714 4.485993 61.489872 -12.015349 15.010242 -3.153247 10.419038 -0.716256 -0.007289 60.342297 8.016694 4.450052 47.867519 -3.146122 37.481178 -12.906110 -1.198706 0.266475 3.466894 14.791964 -8.204943 35.506607 -0.910150 -2.837091 -0.786233 0.256779 -12.147572 9.509716 -15.261212 -3.942971 51.117840 0.026878 3.524176 8.258289 -3.271621 12.573958 
-11.064876 48.372231 -25.482264 -12.548828 14.628908 56.982422 26.252518 0.268443 1.084506 -14.887099 5.427401 1.037792 6.257749 1.549891 4.296421 33.500324 -4.699808 5.099604 0.077514 -6.806648 -0.000437 -67.907074 -3.233551 15.016294 -40.694626 4.533991 62.396599 -11.938490 15.423621 -3.220017 10.115996 -0.844617 -0.007996 61.387043 7.400541 4.685778 47.743217 -3.001831 35.444267 -13.199408 -1.224410 0.275662 3.330110 14.890968 -7.856169 34.930386 -0.939362 -2.807241 -0.319176 1.081535 -12.131486 8.854604 -15.152369 -3.356755 50.707695 0.056332 3.528314 7.705876 -3.088872 12.534108 
-11.297502 48.421761 -25.330370 -12.050782 13.798828 56.328129 26.488657 0.487840 0.977448 -15.052585 5.886615 0.841335 3.663213 1.622730 4.407729 33.217030 -4.719805 5.042562 0.105825 -7.050805 -0.006198 -68.765930 -0.420345 12.262414 -38.672153 4.553452 63.019295 -11.885975 15.853584 -3.298611 9.744346 -1.070874 -0.004308 62.508183 6.473899 5.038281 47.056393 -2.922244 34.373867 -12.826439 -1.857786 0.419074 2.860982 15.042498 -7.653399 34.119595 -0.977895 -2.768063 0.337200 1.790323 -12.129566 7.938929 -15.048903 -2.895189 50.083946 0.101755 3.500429 7.369079 -2.568285 12.441172 
-11.569136 48.511238 -25.250818 -11.435547 12.666015 55.793159 26.910431 0.780288 0.904286 -15.355020 6.267885 0.643900 1.008940 1.765172 4.478306 32.298706 -4.750558 4.949953 -0.291608 -7.285211 -0.006852 -70.279114 2.743951 7.562631 -36.550938 4.590124 63.758545 -12.153780 16.117279 -3.429037 9.578481 -1.040344 -0.002659 63.443230 4.823319 5.204933 45.786308 -2.950561 34.800797 -12.291911 -2.611841 0.563298 2.119116 15.287617 -7.468297 33.064953 -1.016797 -2.706563 0.999719 2.302830 -12.155496 6.785289 -14.949030 -2.522007 49.206108 0.154079 3.472946 7.183214 -1.703481 12.350912 
-11.863346 48.631573 -25.259802 -10.722657 11.250000 55.332027 27.527243 1.080884 0.892341 -15.813782 6.707940 0.494186 -1.636154 1.902181 4.530131 30.921213 -4.801418 4.869674 -0.504487 -7.549049 -0.007344 -72.280945 5.629409 2.163595 -34.270126 4.620575 64.529297 -12.824932 16.427782 -3.687371 9.491346 -0.772225 0.000410 63.962097 2.605306 5.375375 44.025795 -3.022817 35.824825 -11.645844 -3.506739 0.708900 1.074463 15.585643 -7.308878 31.785295 -1.065877 -2.635909 1.684374 2.760183 -12.196244 5.426078 -14.884103 -2.321944 48.055698 0.212672 3.415301 7.007038 -0.602988 12.233464 
-12.153892 48.755684 -25.336636 -9.980468 9.619140 54.835617 28.367529 1.407767 1.054463 -16.429146 7.011438 0.480070 -3.991090 2.156933 4.497089 29.318897 -4.784017 4.790704 -0.669352 -7.471103 -0.008882 -74.590508 8.306831 -3.024780 -32.218670 4.652982 65.312668 -13.780248 16.983650 -4.106273 9.530850 -0.496094 -0.005823 64.552666 -0.151784 5.264222 41.703548 -3.137309 37.283825 -10.812084 -4.242898 0.798391 -0.155405 15.924647 -7.256513 30.486248 -1.124302 -2.546392 2.352863 3.259105 -12.227599 3.895142 -14.626816 -1.984098 46.837215 0.291070 3.351894 6.549097 0.061476 12.149428 
